<svg xmlns="http://www.w3.org/2000/svg" viewBox="0 0 276.23 276.23"><defs><style>.cls-1{fill:#ff42b3;}.cls-2{opacity:0.2;}.cls-3{fill:#f7fdfd;}.cls-4{fill:#fff;}.cls-5{opacity:0.5;}.cls-6{fill:#8b2c5c;}.cls-7{fill:#45152d;}.cls-8{fill:#40132a;}</style></defs><title>face1</title><g id="Layer_2" data-name="Layer 2"><g id="drawing"><rect class="cls-1" width="276.23" height="276.23"/><path class="cls-2" d="M123.7,163s6.06.87,8.52-3.46,5.63-28-9.1-45.63c-10.31-12.33-16.75-16.33-34.31-16.31C76,97.57,56,106.22,49.34,122.39c-6.19,15.08-7.36,22.67-2.17,38.84,4.32,13.43,9.1,16.75,9.82,17.18s5.06-.72,5.49-3.46c.22-1.41,15.42-9.29,31-12C108.38,160.39,123.7,163,123.7,163Z"/><path class="cls-3" d="M64.21,177s19.64-15.31,44.9-12.42c0,0,13.29,1.59,17.33-1.15s7.36-26.14-2.31-41.44c-9-14.25-25.84-19.64-35.23-18C76.43,106,48,111,47.17,145.2c0,0-.17,19.78,13.43,31.77A2.93,2.93,0,0,0,64.21,177Z"/><path class="cls-3" d="M64.21,177s19.64-15.31,44.9-12.42c0,0,13.29,1.59,17.33-1.15s7.36-26.14-2.31-41.44c-9-14.25-25.84-19.64-35.23-18C76.43,106,48,111,47.17,145.2c0,0-.17,19.78,13.43,31.77A2.93,2.93,0,0,0,64.21,177Z"/><ellipse class="cls-2" cx="196.17" cy="135.57" rx="44.56" ry="48.8"/><circle class="cls-4" cx="196.17" cy="135.57" r="41.59"/><path class="cls-5" d="M145.36,221.87c-10.08-1.28-37.18-1.88-46.73-32.09,4-.89,9.25-1.43,11.78-.11,0,0-8.08-6.93-17.18-6.2,0,0-10.1,3.61-6.64,19.92,0,0,2.89-6.75,5.67-10.34,3.4,6.31,18.39,30.58,48.91,31.71,0,0,19.35,1,28.44-5.92C169.61,218.84,155.61,223.17,145.36,221.87Z"/><path class="cls-4" d="M117.92,218.66c-.26,3.26-.23,11.91,7.22,14.47,7.15,2.46,11.71-5,13.4-8.53A53.84,53.84,0,0,1,117.92,218.66Z"/><path class="cls-4" d="M95.06,197.68a41.11,41.11,0,0,0-3.42,14.95c-.13,7.36,3.18,11.41,11.27,12.18,4.47.43,11.72-3.31,13-7.27A64,64,0,0,1,95.06,197.68Z"/><path class="cls-6" d="M128.84,147.46a24.69,24.69,0,1,0-40.92,18.59,59.67,59.67,0,0,1,21.19-1.5,65.38,65.38,0,0,0,12.65.22A24.63,24.63,0,0,0,128.84,147.46Z"/><path class="cls-5" d="M39,119.88s-.1,1.79,1,1.73,1.09-1.73,1.09-1.73.05-6.93.43-7.69,9.15-26.64,42.18-27.07c0,0,15.86-.21,20.19,6.5,0,0,2.6-1.84,2.28-7.42,0,0-2.33-14.78-14.24-14.67,0,0-11.37,0-12.24,6.87,0,0-7.09-14.07-18.62-14.07,0,0-7-.76-6.39,6.87S62.8,79.49,62.8,79.49,39.9,78.08,35.62,93.73c0,0-1.62,6.71,7.15,6.82C42.77,100.55,37.68,105.48,39,119.88Z"/><circle class="cls-7" cx="117.07" cy="148.09" r="10.94"/><circle class="cls-6" cx="180.42" cy="139.01" r="24.91"/><circle class="cls-8" cx="168.38" cy="141.65" r="11.21"/><path class="cls-5" d="M154.31,95s8.12-35.14,36.76-36c0,0,23,.87,31.57,19.06a30.48,30.48,0,0,0,.43-8.29c-.49-3.62-4-13.75-15.76-13.26,0,0,1.3-10.61-6.76-11.75,0,0-11.37-1.08-15.11,9.8,0,0-3-12.29-8.55-11.91s-.28,0-.28,0S165,41.75,162.21,65.2c0,0-1.73-4-5.47-3.52s-6.55,8-6.22,16.13S154.31,95,154.31,95Z"/><circle class="cls-3" cx="108.28" cy="141.7" r="6.39"/><circle class="cls-3" cx="178.27" cy="135.56" r="6.52"/></g></g></svg>