<svg xmlns="http://www.w3.org/2000/svg" viewBox="0 0 276.23 276.23"><defs><style>.cls-1{fill:#ff42b3;}.cls-2{opacity:0.2;}.cls-3{fill:#f7fdfd;}.cls-4{fill:#fff;}.cls-5{opacity:0.5;}.cls-6{fill:#8b2c5c;}.cls-7{fill:#45152d;}.cls-8{fill:#40132a;}</style></defs><title>face1-circle</title><g id="Layer_2" data-name="Layer 2"><g id="drawing"><circle class="cls-1" cx="138.11" cy="138.11" r="138.11"/><path class="cls-2" d="M125,163.91s6.07.87,8.52-3.47,5.63-28-9.09-45.62C114.11,102.49,107.67,98.48,90.1,98.5c-12.76,0-32.82,8.67-39.46,24.84-6.2,15.08-7.37,22.67-2.17,38.84,4.32,13.43,9.1,16.74,9.82,17.18s5.05-.72,5.49-3.47c.22-1.4,15.42-9.28,31-12C109.68,161.34,125,163.91,125,163.91Z"/><path class="cls-3" d="M65.51,177.91s19.63-15.3,44.9-12.41c0,0,13.28,1.59,17.33-1.16s7.36-26.13-2.31-41.44c-9-14.24-25.85-19.63-35.23-18-12.47,2.11-40.86,7.07-41.73,41.29,0,0-.18,19.78,13.43,31.76A2.91,2.91,0,0,0,65.51,177.91Z"/><path class="cls-3" d="M65.51,177.91s19.63-15.3,44.9-12.41c0,0,13.28,1.59,17.33-1.16s7.36-26.13-2.31-41.44c-9-14.24-25.85-19.63-35.23-18-12.47,2.11-40.86,7.07-41.73,41.29,0,0-.18,19.78,13.43,31.76A2.91,2.91,0,0,0,65.51,177.91Z"/><ellipse class="cls-2" cx="197.46" cy="136.52" rx="44.56" ry="48.8"/><circle class="cls-4" cx="197.46" cy="136.52" r="41.59"/><path class="cls-5" d="M146.65,222.82c-10.08-1.28-37.17-1.88-46.73-32.09,4-.89,9.25-1.43,11.79-.11,0,0-8.08-6.93-17.18-6.21,0,0-10.11,3.61-6.64,19.93,0,0,2.89-6.75,5.67-10.35,3.39,6.31,18.39,30.59,48.9,31.72,0,0,19.35,1,28.45-5.92C170.91,219.79,156.9,224.12,146.65,222.82Z"/><path class="cls-4" d="M119.22,219.61c-.27,3.26-.23,11.91,7.22,14.47,7.15,2.46,11.7-5,13.4-8.54A53.61,53.61,0,0,1,119.22,219.61Z"/><path class="cls-4" d="M96.36,198.62a40.76,40.76,0,0,0-3.42,15c-.13,7.36,3.18,11.4,11.26,12.18,4.48.42,11.73-3.31,13-7.27A64,64,0,0,1,96.36,198.62Z"/><path class="cls-6" d="M130.14,148.41A24.69,24.69,0,1,0,89.21,167a59.49,59.49,0,0,1,21.2-1.5,64.79,64.79,0,0,0,12.64.21A24.59,24.59,0,0,0,130.14,148.41Z"/><path class="cls-5" d="M40.33,120.83s-.11,1.78,1,1.73,1.08-1.73,1.08-1.73.06-6.93.44-7.69S52,86.5,85.05,86.07c0,0,15.87-.22,20.2,6.49,0,0,2.6-1.84,2.27-7.41,0,0-2.32-14.78-14.24-14.68,0,0-11.37,0-12.23,6.88,0,0-7.1-14.08-18.63-14.08,0,0-7-.76-6.39,6.88S64.1,80.44,64.1,80.44,41.2,79,36.92,94.68c0,0-1.62,6.71,7.15,6.82C44.07,101.5,39,106.43,40.33,120.83Z"/><circle class="cls-7" cx="118.37" cy="149.04" r="10.94"/><circle class="cls-6" cx="181.72" cy="139.96" r="24.91"/><circle class="cls-8" cx="169.68" cy="142.59" r="11.21"/><path class="cls-5" d="M155.6,95.92s8.13-35.14,36.77-36c0,0,23,.86,31.56,19a30.65,30.65,0,0,0,.44-8.28c-.49-3.63-4-13.75-15.76-13.26,0,0,1.3-10.62-6.77-11.75,0,0-11.37-1.09-15.1,9.8,0,0-3-12.29-8.56-11.92s-.27,0-.27,0-11.64-.86-14.4,22.58c0,0-1.73-4-5.47-3.52s-6.55,8-6.23,16.14S155.6,95.92,155.6,95.92Z"/><circle class="cls-3" cx="109.58" cy="142.65" r="6.39"/><circle class="cls-3" cx="179.56" cy="136.5" r="6.52"/></g></g></svg>