<svg xmlns="http://www.w3.org/2000/svg" xmlns:xlink="http://www.w3.org/1999/xlink" viewBox="0 0 43.24 59.42"><defs><style>.cls-1,.cls-6{fill:#fff;}.cls-1{fill-rule:evenodd;}.cls-2{fill:url(#linear-gradient);}.cls-3{fill:#ffa000;}.cls-4{fill:#f57c00;}.cls-5{fill:#ffca28;}.cls-6{fill-opacity:0.2;}.cls-7{fill:#a52714;opacity:0.2;isolation:isolate;}.cls-8{fill:url(#linear-gradient-2);}</style><linearGradient id="linear-gradient" x1="2722.32" y1="-5785" x2="2722.79" y2="-5784.65" gradientTransform="translate(-259522.47 758189.52) scale(95.33 131.06)" gradientUnits="userSpaceOnUse"><stop offset="0" stop-color="#fff" stop-opacity="0.1"/><stop offset="0.14" stop-color="#fff" stop-opacity="0.08"/><stop offset="0.61" stop-color="#fff" stop-opacity="0.02"/><stop offset="1" stop-color="#fff" stop-opacity="0"/></linearGradient><linearGradient id="linear-gradient-2" x1="2722.12" y1="-5785.11" x2="2722.59" y2="-5784.77" gradientTransform="translate(-258602.65 757859.84) scale(95 131)" xlink:href="#linear-gradient"/></defs><title>firebase</title><g id="Layer_2" data-name="Layer 2"><g id="text"><g id="mask-4"><g id="mask-3-5"><path id="path-2-4" class="cls-1" d="M37.64,13.28a1.35,1.35,0,0,0-1.55-1.11,1.39,1.39,0,0,0-.74.38l-7,7L22.83,9.08A1.35,1.35,0,0,0,21,8.52a1.37,1.37,0,0,0-.56.56l-3,5.74L9.86.71a1.35,1.35,0,0,0-2.53.44L0,47.94l19.55,11a4,4,0,0,0,3.95,0l19.72-11Z"/></g></g><g id="mask-3-3"><g id="mask-3-4"><path id="path-2-3" class="cls-1" d="M37.64,13.28a1.35,1.35,0,0,0-1.55-1.11,1.39,1.39,0,0,0-.74.38l-7,7L22.83,9.08A1.35,1.35,0,0,0,21,8.52a1.37,1.37,0,0,0-.56.56l-3,5.74L9.86.71a1.35,1.35,0,0,0-2.53.44L0,47.94l19.55,11a4,4,0,0,0,3.95,0l19.72-11Z"/></g></g><g id="mask-2"><g id="mask-3-2"><path id="path-2-2" class="cls-1" d="M37.64,13.28a1.35,1.35,0,0,0-1.55-1.11,1.39,1.39,0,0,0-.74.38l-7,7L22.83,9.08A1.35,1.35,0,0,0,21,8.52a1.37,1.37,0,0,0-.56.56l-3,5.74L9.86.71a1.35,1.35,0,0,0-2.53.44L0,47.94l19.55,11a4,4,0,0,0,3.95,0l19.72-11Z"/></g></g><g id="mask"><g id="mask-3"><path id="path-2" class="cls-1" d="M37.64,13.28a1.35,1.35,0,0,0-1.55-1.11,1.39,1.39,0,0,0-.74.38l-7,7L22.83,9.08A1.35,1.35,0,0,0,21,8.52a1.37,1.37,0,0,0-.56.56l-3,5.74L9.86.71a1.35,1.35,0,0,0-2.53.44L0,47.94l19.55,11a4,4,0,0,0,3.95,0l19.72-11Z"/></g></g><g id="_Group_" data-name=" Group "><g id="_Clip_Group_" data-name=" Clip Group "><g id="_Path_3" data-name=" Path 3"><path class="cls-2" d="M37.64,13.28a1.35,1.35,0,0,0-1.55-1.11,1.39,1.39,0,0,0-.74.38l-7,7L22.83,9.08A1.35,1.35,0,0,0,21,8.52a1.37,1.37,0,0,0-.56.56l-3,5.74L9.86.71a1.35,1.35,0,0,0-2.53.44L0,47.94l19.55,11a4,4,0,0,0,3.95,0l19.72-11Z"/></g><g id="_Group_2" data-name=" Group 2"><path id="_Path_" data-name=" Path " class="cls-3" d="M0,47.94,7.34,1.14A1.35,1.35,0,0,1,9.86.71l7.57,14.11,3-5.74a1.34,1.34,0,0,1,1.82-.56,1.4,1.4,0,0,1,.57.56L43.24,47.94Z"/><g id="_Group_3" data-name=" Group 3"><polygon class="cls-4" points="25.29 29.71 17.42 14.81 0.02 47.94 25.29 29.71"/></g></g><g id="_Group_4" data-name=" Group 4"><path class="cls-5" d="M43.24,47.94l-5.6-34.66a1.35,1.35,0,0,0-1.55-1.11,1.39,1.39,0,0,0-.74.38L0,47.94l19.55,11a4,4,0,0,0,3.95,0Z"/></g><path id="_Compound_Path_" data-name=" Compound Path " class="cls-6" d="M37.64,13.28a1.35,1.35,0,0,0-1.55-1.11,1.39,1.39,0,0,0-.74.38l-7,7L22.83,9.08A1.35,1.35,0,0,0,21,8.52a1.37,1.37,0,0,0-.56.56l-3,5.74L9.86.71a1.35,1.35,0,0,0-2.53.44L0,47.94H0l0,0,.2.09L28.33,19.92l7-7a1.36,1.36,0,0,1,1.92,0,1.31,1.31,0,0,1,.37.73L43.19,48l.05,0ZM.08,47.88,7.34,1.48A1.34,1.34,0,0,1,8.88.35a1.32,1.32,0,0,1,1,.7l7.57,14.1,3-5.74a1.36,1.36,0,0,1,2.39,0l5.4,10.28Z"/><path id="_Path_2" data-name=" Path 2" class="cls-7" d="M23.52,58.57a4,4,0,0,1-3.95,0L.07,47.64l0,.3,19.55,11a4,4,0,0,0,3.95,0l19.72-11-.05-.31Z"/></g></g><g id="_Path_3-Copy" data-name=" Path 3-Copy"><path class="cls-8" d="M37.58,13.28a1.33,1.33,0,0,0-2.27-.72l-7,7L22.82,9.09A1.33,1.33,0,0,0,21,8.52a1.31,1.31,0,0,0-.57.57l-3,5.74L9.9.73a1.35,1.35,0,0,0-2.52.43L.1,47.93l19.47,11a4.06,4.06,0,0,0,3.94,0l19.65-11Z"/></g></g></g></svg>