<svg xmlns="http://www.w3.org/2000/svg" viewBox="0 0 80.57 62.05"><defs><style>.cls-1{fill:#9edcf2;}.cls-2{fill:#010101;}.cls-3{fill:#f5ccb3;}.cls-4{fill:#fff;}.cls-5{fill:#af5c51;}.cls-6{fill:#c4e5d9;}</style></defs><title>github</title><g id="Layer_2" data-name="Layer 2"><g id="text"><path class="cls-1" d="M14.76,39.62l-.66,2.26a.82.82,0,0,0,.6,1,.74.74,0,0,0,.69-1l-.63-2.23Z"/><path class="cls-2" d="M80.51,30.08l.06-.28A75.83,75.83,0,0,0,63,28.63a32.45,32.45,0,0,0,.88-8.37,14.82,14.82,0,0,0-4.41-10.8A14.08,14.08,0,0,0,58.86.12s-3.09-1-10.11,3.71a35.39,35.39,0,0,0-8.59-1A36.84,36.84,0,0,0,30.66,4C23.42-.92,20.24.08,20.24.08a13.62,13.62,0,0,0-.41,10,14.46,14.46,0,0,0-3.94,10.14,24.55,24.55,0,0,0,1.23,8.34A75.59,75.59,0,0,0,0,29.76l.06.29a76.4,76.4,0,0,1,17.16-1.17c.18.51.41,1,.63,1.48A76.84,76.84,0,0,0,.13,32.91l.09.28A77.89,77.89,0,0,1,18,30.68c2.46,4.53,7.24,7.49,15.8,8.4a7,7,0,0,0-2.95,4.56c-1.67.79-6.9,2.74-10-2.67,0,0-1.77-3.21-5.13-3.46,0,0-3.28-.07-.23,2,0,0,2.18,1,3.69,4.91,0,0,2,6.61,11.45,4.47V55.7a3.88,3.88,0,0,1-2.42,3.21s-1.32.91.09,1.41c0,0,6.14.51,6.14-4.53V48.36s-.25-3,1.2-4V56.61s-.1,2.93-1.61,4c0,0-1,1.79,1.2,1.32a5.45,5.45,0,0,0,4.41-5.54l.09-12.37h1l.09,12.37A5.48,5.48,0,0,0,45.23,62c2.2.5,1.19-1.32,1.19-1.32-1.51-1.1-1.6-4-1.6-4V44.49C46.27,45.63,46,48.36,46,48.36v7.43c0,5,6.14,4.53,6.14,4.53,1.42-.5.1-1.41.1-1.41a4,4,0,0,1-2.43-3.21V45.94c0-3.81-1.6-5.82-3.18-6.86,9.13-.91,13.51-3.84,15.52-8.43a76,76,0,0,1,18.07,2.54l.09-.28a78.89,78.89,0,0,0-18-2.55c.18-.47.34-.94.5-1.45a79.85,79.85,0,0,1,17.72,1.17Z"/><path class="cls-3" d="M55,20a8.56,8.56,0,0,1,3.12,6.23c0,10.83-8.06,11.11-18,11.11s-18-1.51-18-11.11a8.41,8.41,0,0,1,3.09-6.2c3.24-3,8.72-1.38,14.92-1.38S51.71,17.08,55,20Z"/><path class="cls-4" d="M34.09,26.84c0,3-1.67,5.38-3.75,5.38S26.6,29.8,26.6,26.84s1.66-5.39,3.74-5.39S34.09,23.85,34.09,26.84Z"/><path class="cls-5" d="M32.89,26.9c0,2-1.13,3.59-2.49,3.59s-2.48-1.61-2.48-3.59,1.13-3.59,2.48-3.59S32.89,24.92,32.89,26.9Z"/><path class="cls-4" d="M54.2,26.84c0,3-1.67,5.38-3.75,5.38s-3.74-2.42-3.74-5.38,1.66-5.39,3.74-5.39S54.2,23.85,54.2,26.84Z"/><path class="cls-5" d="M53,26.9c0,2-1.13,3.59-2.49,3.59S48,28.88,48,26.9s1.13-3.59,2.48-3.59S53,24.92,53,26.9Zm-11.9,4.72a.95.95,0,1,1-1.89,0,.93.93,0,0,1,1-.94A1,1,0,0,1,41.07,31.62ZM38,34a.29.29,0,0,1,.19-.38.3.3,0,0,1,.37.19,1.71,1.71,0,0,0,1.61,1.14,1.74,1.74,0,0,0,1.6-1.14.31.31,0,0,1,.38-.19.3.3,0,0,1,.19.38A2.3,2.3,0,0,1,38,34Z"/><path class="cls-6" d="M17.15,38.26c0,.25-.28.44-.66.44s-.66-.19-.66-.44.28-.44.66-.44S17.15,38,17.15,38.26Zm1.83,1c0,.25-.28.44-.66.44s-.66-.19-.66-.44.28-.44.66-.44S19,39,19,39.27Zm1.1,1.32c0,.25-.28.44-.66.44s-.66-.19-.66-.44.28-.44.66-.44S20.08,40.34,20.08,40.59Zm1,1.51c0,.25-.29.44-.66.44s-.66-.19-.66-.44.28-.44.66-.44S21.09,41.85,21.09,42.1Zm1.1,1.39c0,.25-.28.44-.66.44s-.66-.19-.66-.44.28-.44.66-.44S22.19,43.23,22.19,43.49Zm1.51,1.22c0,.26-.28.44-.66.44s-.66-.18-.66-.44.28-.44.66-.44S23.7,44.46,23.7,44.71Zm2.11.79c0,.25-.29.44-.66.44s-.66-.19-.66-.44.28-.44.66-.44S25.81,45.25,25.81,45.5Zm2.11,0c0,.25-.29.44-.66.44s-.66-.19-.66-.44.28-.44.66-.44S27.92,45.25,27.92,45.5Zm2.14-.35c0,.26-.29.45-.66.45s-.66-.19-.66-.45.28-.44.66-.44S30.06,44.9,30.06,45.15Z"/></g></g></svg>