<svg xmlns="http://www.w3.org/2000/svg" viewBox="0 0 538 90.37"><defs><style>.cls-1,.cls-10{fill:#fff;}.cls-2{fill:#0ebeff;}.cls-3{fill:#2caff6;}.cls-4{fill:#4a9fec;}.cls-5{fill:#6890e3;}.cls-6{fill:#a571d0;}.cls-7{fill:#c361c6;}.cls-8{fill:#e152bd;}.cls-9{fill:#ff42b3;}.cls-10,.cls-13{opacity:0.5;}.cls-11{opacity:0.65;}.cls-12{opacity:0.36;}.cls-14{font-size:29.81px;fill:gray;font-family:Arvo-Bold, Arvo;font-weight:700;letter-spacing:0.2em;}</style></defs><title>Asset 1</title><g id="Layer_2" data-name="Layer 2"><g id="logo-text"><circle cx="497.11" cy="21.17" r="16.1"/><circle class="cls-1" cx="498.8" cy="22.85" r="16.1"/><path class="cls-2" d="M31.3,90.37a31.3,31.3,0,1,1,0-62.59H108a32.79,32.79,0,0,0,0,62.59Z"/><path class="cls-3" d="M117.73,90.37a31.3,31.3,0,0,1,0-62.59h40.89a32.79,32.79,0,0,0,0,62.59Z"/><path class="cls-4" d="M168.4,90.37a31.3,31.3,0,0,1,0-62.59h40.89a32.79,32.79,0,0,0,0,62.59Z"/><path class="cls-5" d="M219.07,90.37a31.3,31.3,0,0,1,0-62.59H260a32.79,32.79,0,0,0,0,62.59Z"/><path class="cls-1" d="M269.75,90.37a31.3,31.3,0,1,1,0-62.59h40.88a32.79,32.79,0,0,0,0,62.59Z"/><path class="cls-6" d="M269.75,90.37a31.3,31.3,0,1,1,0-62.59h40.88a32.79,32.79,0,0,0,0,62.59Z"/><path class="cls-7" d="M320.42,90.37a31.3,31.3,0,1,1,0-62.59H361.3a32.79,32.79,0,0,0,0,62.59Z"/><path class="cls-8" d="M371.09,90.37a31.3,31.3,0,1,1,0-62.59H412a32.79,32.79,0,0,0,0,62.59Z"/><path class="cls-9" d="M421.76,90.37a31.3,31.3,0,1,1,0-62.59H506.7a31.3,31.3,0,1,1,0,62.59Z"/><rect class="cls-10" x="25.23" y="20.96" width="490.48" height="11.23" rx="3.77"/><g class="cls-11"><path class="cls-12" d="M529.79,80.13a45.32,45.32,0,0,1-10.42,4.28s-49.32-.16-116.36-.33a31.13,31.13,0,0,0,18.75,6.29H506.7A31.17,31.17,0,0,0,529.79,80.13Z"/><path class="cls-12" d="M371.09,90.37H412a32.66,32.66,0,0,1-11.39-6.29L352.19,84A31.1,31.1,0,0,0,371.09,90.37Z"/><path class="cls-12" d="M320.42,90.37H361.3A32.61,32.61,0,0,1,349.78,84l-48.39-.09A31.1,31.1,0,0,0,320.42,90.37Z"/><path class="cls-12" d="M269.75,90.37h40.88A32.61,32.61,0,0,1,299,83.86l-48.38-.07A31.08,31.08,0,0,0,269.75,90.37Z"/><path class="cls-12" d="M219.07,90.37H260a32.79,32.79,0,0,1-11.71-6.58l-48.36,0A31.09,31.09,0,0,0,219.07,90.37Z"/><path class="cls-12" d="M168.4,90.37h40.89a32.58,32.58,0,0,1-11.75-6.62h-48.3A31.07,31.07,0,0,0,168.4,90.37Z"/><path class="cls-12" d="M117.73,90.37h40.89a32.6,32.6,0,0,1-11.74-6.61c-17.65,0-33.92,0-48.19.1A31.09,31.09,0,0,0,117.73,90.37Z"/><path class="cls-12" d="M31.3,90.37H108a32.61,32.61,0,0,1-11.63-6.51c-28.79.11-49,.28-55.34.55-19.93.87-31.28-5.32-37.3-10.65A31.31,31.31,0,0,0,31.3,90.37Z"/></g><circle cx="478.13" cy="32.15" r="16.1"/><circle class="cls-1" cx="479.82" cy="33.84" r="16.1"/><ellipse class="cls-2" cx="484.95" cy="32.38" rx="6.41" ry="6.92"/><circle cx="486.18" cy="33.84" r="4.43"/><circle class="cls-1" cx="483.46" cy="30.16" r="1.94"/><ellipse class="cls-2" cx="500.83" cy="18.51" rx="6.41" ry="6.92"/><circle cx="502.05" cy="19.97" r="4.43"/><circle class="cls-1" cx="499.34" cy="16.28" r="1.94"/><path class="cls-13" d="M517.15,54.58a1.51,1.51,0,1,0-2.71,1.31,8.71,8.71,0,1,1-15.67,7.6,1.53,1.53,0,0,0-.86-.76,1.51,1.51,0,0,0-1.85,2.08,11.72,11.72,0,0,0,21.09-10.23Z"/><path class="cls-1" d="M516.11,53.54a1.47,1.47,0,0,0-.86-.76,1.49,1.49,0,0,0-1.15.07,1.5,1.5,0,0,0-.69,2,8.71,8.71,0,0,1-15.68,7.6,1.52,1.52,0,0,0-2-.7,1.5,1.5,0,0,0-.76.86,1.48,1.48,0,0,0,.07,1.15,11.65,11.65,0,0,0,6.7,6,11.94,11.94,0,0,0,3.86.65,11.72,11.72,0,0,0,10.52-16.84Z"/><path class="cls-13" d="M53.79,67.09H56.3L60,51.2H57.16l1-4.52h12.6a7.56,7.56,0,0,1,2.79.47,5.82,5.82,0,0,1,2,1.33,5.72,5.72,0,0,1,1.26,2,7.25,7.25,0,0,1,.42,2.5,8.08,8.08,0,0,1-.46,2.71A5.87,5.87,0,0,1,75.32,58a7.91,7.91,0,0,1-1.94,1.3,1.55,1.55,0,0,1,.23.19,5.25,5.25,0,0,1,1.27,1.78,5.36,5.36,0,0,1,.43,2.15A8.78,8.78,0,0,1,74.64,67a6.73,6.73,0,0,1-1.9,2.55,8.2,8.2,0,0,1-3,1.53,13.85,13.85,0,0,1-3.9.51H52.74Zm9.61-5.8-1.34,5.8h4.09a4.21,4.21,0,0,0,1.52-.25,3.09,3.09,0,0,0,1.12-.72A3.29,3.29,0,0,0,69.48,65a4.18,4.18,0,0,0,.24-1.44,2.66,2.66,0,0,0-.15-.9,2,2,0,0,0-.43-.72,2,2,0,0,0-.7-.48,2.78,2.78,0,0,0-1-.17ZM65.76,51.2l-1.3,5.59h3.81a4.16,4.16,0,0,0,1.38-.23,3,3,0,0,0,2.12-3,2.83,2.83,0,0,0-.15-.93,2.5,2.5,0,0,0-.46-.77,1.91,1.91,0,0,0-.74-.52,2.66,2.66,0,0,0-1-.19Z"/><path class="cls-1" d="M52.49,65.8H55l3.68-15.9H55.86l1-4.52H69.49a7.64,7.64,0,0,1,2.8.48,5.67,5.67,0,0,1,2,1.32,5.4,5.4,0,0,1,1.26,2,7,7,0,0,1,.43,2.5,8.23,8.23,0,0,1-.46,2.7A6.09,6.09,0,0,1,74,56.72,7.56,7.56,0,0,1,72.09,58l.23.2A5.15,5.15,0,0,1,73.59,60,5.46,5.46,0,0,1,74,62.15a9,9,0,0,1-.66,3.57,6.8,6.8,0,0,1-1.9,2.54,8.25,8.25,0,0,1-3,1.53,13.83,13.83,0,0,1-3.89.51H51.44ZM62.11,60l-1.35,5.8h4.1a4.25,4.25,0,0,0,1.52-.26,3,3,0,0,0,1.11-.72,2.86,2.86,0,0,0,.69-1.12,4.1,4.1,0,0,0,.24-1.44,2.64,2.64,0,0,0-.15-.89,2.11,2.11,0,0,0-.42-.73,1.88,1.88,0,0,0-.71-.47,2.5,2.5,0,0,0-1-.17Zm2.35-10.1-1.3,5.59H67a4.16,4.16,0,0,0,1.38-.22,3.4,3.4,0,0,0,1.11-.64,3.11,3.11,0,0,0,.74-1,3,3,0,0,0,.27-1.3,2.6,2.6,0,0,0-.16-.93,2.2,2.2,0,0,0-.45-.77,2,2,0,0,0-.75-.53,2.61,2.61,0,0,0-1-.19Z"/><path class="cls-13" d="M109.53,72.11a10.83,10.83,0,0,1-4.12-.77,9.67,9.67,0,0,1-3.26-2.14A9.82,9.82,0,0,1,100,65.89a11.58,11.58,0,0,1-.77-4.29,15.93,15.93,0,0,1,.59-4.38,15.52,15.52,0,0,1,1.64-3.76A15.38,15.38,0,0,1,107,48.13a15.32,15.32,0,0,1,3.49-1.42,14.17,14.17,0,0,1,3.71-.5,11,11,0,0,1,4.23.78,9.12,9.12,0,0,1,3.24,2.16,9.62,9.62,0,0,1,2.07,3.33,12,12,0,0,1,.73,4.27,16.21,16.21,0,0,1-.55,4.31,14.7,14.7,0,0,1-7,9.1,15.49,15.49,0,0,1-3.55,1.45A15.25,15.25,0,0,1,109.53,72.11Zm.62-5.53a6.65,6.65,0,0,0,2.16-.35,8.24,8.24,0,0,0,2-1A8.77,8.77,0,0,0,116,63.76a9.75,9.75,0,0,0,1.33-1.91,11,11,0,0,0,.86-2.2,9.17,9.17,0,0,0,.31-2.39,6.88,6.88,0,0,0-.34-2.24,4.91,4.91,0,0,0-1-1.74,4.39,4.39,0,0,0-1.57-1.14,5.06,5.06,0,0,0-2.07-.4,7,7,0,0,0-3.19.77,8.85,8.85,0,0,0-2.64,2.07,10.34,10.34,0,0,0-1.81,3,9.28,9.28,0,0,0-.68,3.5,6.88,6.88,0,0,0,.35,2.24,5.08,5.08,0,0,0,1,1.75,4.67,4.67,0,0,0,1.57,1.13A5,5,0,0,0,110.15,66.58Z"/><path class="cls-1" d="M108.23,70.81a10.87,10.87,0,0,1-4.12-.76,9.57,9.57,0,0,1-5.39-5.46A11.52,11.52,0,0,1,98,60.31a15.82,15.82,0,0,1,.59-4.38,15,15,0,0,1,1.64-3.76,14.62,14.62,0,0,1,2.46-3.06,15.63,15.63,0,0,1,3.08-2.28,15.87,15.87,0,0,1,3.5-1.42,14.14,14.14,0,0,1,3.7-.49,11.27,11.27,0,0,1,4.24.77,9.59,9.59,0,0,1,3.24,2.16,9.77,9.77,0,0,1,2.07,3.33,12,12,0,0,1,.73,4.28,16.13,16.13,0,0,1-.55,4.3,15.75,15.75,0,0,1-1.55,3.74,14.64,14.64,0,0,1-2.39,3.06,14.46,14.46,0,0,1-3,2.3,15,15,0,0,1-7.44,2Zm.63-5.52a6.87,6.87,0,0,0,2.15-.35,8.43,8.43,0,0,0,2-1,9.24,9.24,0,0,0,1.7-1.5A10.14,10.14,0,0,0,116,60.55a9.77,9.77,0,0,0,.86-2.2,9.1,9.1,0,0,0,.32-2.38,7.27,7.27,0,0,0-.34-2.25,5.11,5.11,0,0,0-1-1.74,4.41,4.41,0,0,0-1.56-1.13,5.1,5.1,0,0,0-2.07-.41,6.87,6.87,0,0,0-3.19.78,8.69,8.69,0,0,0-2.65,2.07,10.51,10.51,0,0,0-1.81,3,9.31,9.31,0,0,0-.67,3.5,6.9,6.9,0,0,0,.34,2.25,5.15,5.15,0,0,0,1,1.74,4.44,4.44,0,0,0,1.56,1.14A5.17,5.17,0,0,0,108.86,65.29Z"/><path class="cls-13" d="M161.19,72.11a10.87,10.87,0,0,1-4.12-.77,9.51,9.51,0,0,1-5.39-5.45,11.57,11.57,0,0,1-.76-4.29,15.53,15.53,0,0,1,2.22-8.14,14.93,14.93,0,0,1,2.47-3.05,15.19,15.19,0,0,1,6.57-3.7,14.23,14.23,0,0,1,3.71-.5,11.08,11.08,0,0,1,4.24.78,9.17,9.17,0,0,1,3.23,2.16,9.64,9.64,0,0,1,2.08,3.33,12.19,12.19,0,0,1,.73,4.27,16.63,16.63,0,0,1-.55,4.31,15.29,15.29,0,0,1-1.56,3.73,14.57,14.57,0,0,1-5.43,5.37,15,15,0,0,1-7.44,2Zm.62-5.53a6.61,6.61,0,0,0,2.16-.35,8.06,8.06,0,0,0,2-1,8.49,8.49,0,0,0,1.69-1.49A9.75,9.75,0,0,0,169,61.85a10.47,10.47,0,0,0,.86-2.2,9.17,9.17,0,0,0,.31-2.39A7.17,7.17,0,0,0,169.8,55a4.93,4.93,0,0,0-1-1.74,4.44,4.44,0,0,0-1.56-1.14,5.15,5.15,0,0,0-2.08-.4,6.94,6.94,0,0,0-3.18.77,9,9,0,0,0-2.65,2.07,10.34,10.34,0,0,0-1.81,3,9.27,9.27,0,0,0-.67,3.5,6.88,6.88,0,0,0,.34,2.24,5,5,0,0,0,1,1.75,4.54,4.54,0,0,0,1.56,1.13A5,5,0,0,0,161.81,66.58Z"/><path class="cls-1" d="M159.9,70.81a10.79,10.79,0,0,1-4.12-.76,9.55,9.55,0,0,1-5.4-5.46,11.52,11.52,0,0,1-.76-4.28,15.82,15.82,0,0,1,.59-4.38,15.35,15.35,0,0,1,1.64-3.76,15,15,0,0,1,2.46-3.06,15.41,15.41,0,0,1,3.09-2.28,15.59,15.59,0,0,1,3.49-1.42,14.16,14.16,0,0,1,3.71-.49,11.26,11.26,0,0,1,4.23.77,9.4,9.4,0,0,1,3.24,2.16,9.77,9.77,0,0,1,2.07,3.33,12,12,0,0,1,.73,4.28,16.13,16.13,0,0,1-.55,4.3,15.34,15.34,0,0,1-1.55,3.74,14.64,14.64,0,0,1-2.39,3.06,14.21,14.21,0,0,1-3,2.3,15,15,0,0,1-7.43,2Zm.62-5.52a6.87,6.87,0,0,0,2.15-.35,8.7,8.7,0,0,0,2-1,9.52,9.52,0,0,0,1.69-1.5,9.7,9.7,0,0,0,1.32-1.91,10.29,10.29,0,0,0,.87-2.2,9.53,9.53,0,0,0,.31-2.38,7,7,0,0,0-.34-2.25,5,5,0,0,0-1-1.74A4.24,4.24,0,0,0,166,50.85a5.06,5.06,0,0,0-2.07-.41,6.87,6.87,0,0,0-3.19.78,8.69,8.69,0,0,0-2.65,2.07,10.26,10.26,0,0,0-1.8,3,9.32,9.32,0,0,0-.68,3.5,6.9,6.9,0,0,0,.35,2.25,5.13,5.13,0,0,0,1,1.74,4.44,4.44,0,0,0,1.56,1.14A5.17,5.17,0,0,0,160.52,65.29Z"/><path class="cls-13" d="M205.05,46.68h11.12l-1,4.52h-2.48L209,67.09h2.81l-1,4.51H199.6l1.05-4.51h2.55l3.68-15.89H204Zm16.07,4.48,1-4.48h10.16l-1,4.52h-2.2L218.54,59l5.75,8.05h2.42l-1,4.51h-9.27l1-4.51-6.19-8.53Z"/><path class="cls-1" d="M203.76,45.38h11.11l-1,4.52h-2.48l-3.7,15.9h2.81l-1.05,4.5H198.3l1-4.5h2.55l3.68-15.9h-2.86Zm16.06,4.49,1.05-4.49H231l-1,4.52h-2.2l-10.56,7.84L223,65.8h2.42l-1,4.5h-9.27l1.05-4.5L210,57.27Z"/><path class="cls-13" d="M275.7,46.68h10.06l-1,4.52h-2L272.1,71.6h-6.74l-.13-16-7.84,16h-6.74l-1.14-20.4h-2.69l1-4.52h10.08l-1.05,4.52h-2.06l.64,13.62,8.72-18.14h5.93l.27,18.08,6.85-13.56h-2.58Z"/><path class="cls-1" d="M274.41,45.38h10.06l-1,4.52h-1.95L270.81,70.3h-6.74l-.14-16-7.84,16h-6.74l-1.13-20.4h-2.7l1-4.52h10.08l-1.06,4.52h-2.05l.64,13.63,8.71-18.15h5.94l.26,18.08,6.86-13.56h-2.59Z"/><path class="cls-13" d="M315,72.11a10.83,10.83,0,0,1-4.12-.77,9.67,9.67,0,0,1-3.26-2.14,9.82,9.82,0,0,1-2.13-3.31,11.58,11.58,0,0,1-.77-4.29,15.93,15.93,0,0,1,.59-4.38A15.52,15.52,0,0,1,307,53.46a15.38,15.38,0,0,1,5.55-5.33A15.32,15.32,0,0,1,316,46.71a14.17,14.17,0,0,1,3.71-.5,11,11,0,0,1,4.23.78,9.12,9.12,0,0,1,3.24,2.16,9.77,9.77,0,0,1,2.07,3.33,12,12,0,0,1,.73,4.27,16.21,16.21,0,0,1-.55,4.31,14.7,14.7,0,0,1-7,9.1,15.49,15.49,0,0,1-3.55,1.45A15.31,15.31,0,0,1,315,72.11Zm.62-5.53a6.65,6.65,0,0,0,2.16-.35,8.24,8.24,0,0,0,2-1,8.77,8.77,0,0,0,1.69-1.49,9.75,9.75,0,0,0,1.33-1.91,11,11,0,0,0,.86-2.2,9.17,9.17,0,0,0,.31-2.39A6.88,6.88,0,0,0,323.6,55a4.91,4.91,0,0,0-1-1.74,4.39,4.39,0,0,0-1.57-1.14,5.06,5.06,0,0,0-2.07-.4,7,7,0,0,0-3.19.77,8.85,8.85,0,0,0-2.64,2.07,10.34,10.34,0,0,0-1.81,3,9.28,9.28,0,0,0-.68,3.5A6.88,6.88,0,0,0,311,63.3a5.08,5.08,0,0,0,1,1.75,4.67,4.67,0,0,0,1.57,1.13A5,5,0,0,0,315.62,66.58Z"/><path class="cls-1" d="M313.7,70.81a10.87,10.87,0,0,1-4.12-.76,9.57,9.57,0,0,1-5.39-5.46,11.52,11.52,0,0,1-.76-4.28,15.53,15.53,0,0,1,2.22-8.14,15,15,0,0,1,2.47-3.06,15.15,15.15,0,0,1,6.58-3.7,14.09,14.09,0,0,1,3.7-.49,11.27,11.27,0,0,1,4.24.77,9.59,9.59,0,0,1,3.24,2.16A9.77,9.77,0,0,1,328,51.18a12.24,12.24,0,0,1,.73,4.28,16.13,16.13,0,0,1-.55,4.3,15.37,15.37,0,0,1-1.56,3.74,14.27,14.27,0,0,1-2.38,3.06,14.46,14.46,0,0,1-3.05,2.3,15,15,0,0,1-7.44,2Zm.63-5.52a6.87,6.87,0,0,0,2.15-.35,8.43,8.43,0,0,0,2-1,9.24,9.24,0,0,0,1.7-1.5,10.14,10.14,0,0,0,1.32-1.91,9.77,9.77,0,0,0,.86-2.2,9.1,9.1,0,0,0,.32-2.38,7.27,7.27,0,0,0-.34-2.25,5.11,5.11,0,0,0-1-1.74,4.41,4.41,0,0,0-1.56-1.13,5.13,5.13,0,0,0-2.07-.41,6.87,6.87,0,0,0-3.19.78,8.69,8.69,0,0,0-2.65,2.07,10.29,10.29,0,0,0-1.81,3,9.31,9.31,0,0,0-.67,3.5,6.9,6.9,0,0,0,.34,2.25,5.15,5.15,0,0,0,1,1.74,4.44,4.44,0,0,0,1.56,1.14A5.17,5.17,0,0,0,314.33,65.29Z"/><path class="cls-13" d="M360,46.68h13.27a6.69,6.69,0,0,1,2.84.55,5.94,5.94,0,0,1,2,1.46,6,6,0,0,1,1.14,2,7.36,7.36,0,0,1,.37,2.32,8.29,8.29,0,0,1-.46,2.88,6.17,6.17,0,0,1-1.43,2.25,7.2,7.2,0,0,1-1.91,1.45c-.62.31-1.07.52-1.33.64a4.05,4.05,0,0,1,.44.49,3,3,0,0,1,.51,1.05,5.88,5.88,0,0,1,.27,1.7l.1,3.58h2.36l-1.05,4.51h-7.4l.4-5.92a7.45,7.45,0,0,0-.08-1.82,2.65,2.65,0,0,0-.54-1.25,2.35,2.35,0,0,0-1.08-.71,5,5,0,0,0-1.67-.23h-1.58l-1.27,5.42H366l-1,4.51H354.89L356,67.09h2.2l3.7-15.89H359Zm7.58,4.52-1.41,6h3.12a7.53,7.53,0,0,0,1.85-.21,3.84,3.84,0,0,0,1.42-.63,2.91,2.91,0,0,0,.92-1.08,3.57,3.57,0,0,0,.32-1.55,2.55,2.55,0,0,0-.69-1.87,3.1,3.1,0,0,0-2.27-.69Z"/><path class="cls-1" d="M358.73,45.38H372a6.72,6.72,0,0,1,2.84.56,5.77,5.77,0,0,1,2,1.45,5.88,5.88,0,0,1,1.15,2,7.71,7.71,0,0,1,.36,2.33,8.37,8.37,0,0,1-.46,2.88,6.12,6.12,0,0,1-1.43,2.25,6.91,6.91,0,0,1-1.9,1.44L373.2,59a4.76,4.76,0,0,1,.44.48,3.2,3.2,0,0,1,.51,1,6.4,6.4,0,0,1,.26,1.7l.1,3.59h2.37l-1.05,4.5h-7.4l.39-5.92a7.41,7.41,0,0,0-.07-1.81,2.71,2.71,0,0,0-.54-1.25,2.45,2.45,0,0,0-1.08-.72,5.36,5.36,0,0,0-1.68-.23h-1.58l-1.26,5.43h2.1l-1,4.5H353.6l1-4.5h2.2l3.7-15.9h-2.87Zm7.58,4.52-1.42,6H368a7.6,7.6,0,0,0,1.85-.2,4.29,4.29,0,0,0,1.42-.63A2.91,2.91,0,0,0,372.2,54a3.53,3.53,0,0,0,.32-1.54,2.59,2.59,0,0,0-.68-1.87,3.08,3.08,0,0,0-2.28-.7Z"/><path class="cls-13" d="M404.1,67.09h2.24L410,51.2h-2.86l1-4.52h11.31l3,16.7,10.17-16.7H444.3l-1,4.52h-2.53L437,67.09h2.45l-1,4.51H428.37l1.05-4.51h1.89l3.11-13.38L423.29,71.3h-5l-3.27-17.79L411.8,67.09h2.36l-1,4.51H403.05Z"/><path class="cls-1" d="M402.81,65.8H405l3.69-15.9h-2.87l1.06-4.52h11.31l3,16.7,10.18-16.7H443l-1,4.52h-2.53l-3.7,15.9h2.45l-1,4.5H427.07l1.05-4.5H430l3.1-13.38L422,70H417l-3.27-17.79L410.5,65.8h2.37l-1,4.5H401.75Z"/><text class="cls-14" transform="translate(29.15 25.93)">The</text></g></g></svg>