<svg xmlns="http://www.w3.org/2000/svg" viewBox="0 0 276.23 276.23"><defs><style>.cls-1{fill:#c361c6;}.cls-2{opacity:0.4;}.cls-3{fill:#effdfb;}.cls-4{fill:#1fc1db;}.cls-5{opacity:0.5;}.cls-6{fill:#fff;}.cls-7{fill:#115b6f;}</style></defs><title>face3</title><g id="Layer_2" data-name="Layer 2"><g id="drawing"><rect class="cls-1" width="276.23" height="276.23"/><ellipse class="cls-2" cx="76.61" cy="133.32" rx="43.57" ry="18.72" transform="translate(-77.13 136.45) rotate(-61.28)"/><ellipse class="cls-2" cx="158.38" cy="166.6" rx="43.87" ry="48.34"/><circle class="cls-3" cx="158.38" cy="166.6" r="40.76"/><circle class="cls-4" cx="163.62" cy="166.25" r="27.06"/><path class="cls-5" d="M151.58,100s15.39-4.23,40.3,4.08a111.23,111.23,0,0,1,42.57,26.71c1.81,1.81,7.88-7.66,5.84-12.64s-14.37-4.64-14.37-4.64S237.35,110,238.26,100c0,0,1-7.93-23.66-4.3,0,0,10.3-6,3.85-11.21s-28.42-.11-30.68,3.28c0,0,1.81-6.34-2.83-6.22S160,87.06,151.58,100Z"/><path class="cls-5" d="M87.8,61.77s6.8-8.49,14.38-6.79,20.27,14.15,19.59,33.28c0,0,9-11.54,9.51-24.33s-7.59-7.48-9.4-4.31c0,0,3.06-21.62-4.19-22.07s-7.47,8.26-7.47,8.26S109,34.94,101.16,34.72s-4.41,13.47-4.41,13.47-5-9.4-9-7S87.8,61.77,87.8,61.77Z"/><path class="cls-5" d="M218.11,197.28c-1.93-3.73-9.17-1.58-13.25,2.83l.57.46s5.35-2.67,7.72-1.27c-18.57,29-76,25.27-76,25.27C68.84,222.1,45.47,162.11,41.73,151c2.12.33,4.91,2.47,5.09,4.24,0,0,.34-9.05-7.24-9.62,0,0-7.25,2.15-2.38,11.89,0,0,1.25-5.78,3.28-6.46a2.78,2.78,0,0,1,.78-.1c2.37,37.19,38.1,79.58,100,79.58,54.74,0,70.12-23.63,73.17-29.72,1.43,2.45,2.18,5.31,1.88,6.51C216.29,207.36,220,201,218.11,197.28Z"/><path class="cls-6" d="M167.78,228.39c2.49,3,9,9.66,15.68,8.06,7.64-1.83,12.06-11.62,11.4-17.11A88.63,88.63,0,0,1,167.78,228.39Z"/><path class="cls-6" d="M141.24,230.57c-2.1,0-4.17-.06-6.22-.15.15,3.57,1.94,10.39,13.58,10.22,0,0,10.66-.11,11.88-11.16A162.75,162.75,0,0,1,141.24,230.57Z"/><path class="cls-6" d="M103.15,224.54c.73,4.49,3.12,14.36,10.24,16.44,8.43,2.47,16.12-4.13,16.86-10.88A114.55,114.55,0,0,1,103.15,224.54Z"/><path class="cls-6" d="M74.14,209.07c-.66,4-2.17,18.84,10.61,22.06,11,2.76,15.11-3.69,16.54-7.24A99,99,0,0,1,74.14,209.07Z"/><path class="cls-6" d="M55.73,190c-.42,5.36-.7,17.29,4.79,19.56,5.72,2.36,9.47-.59,11.49-2.14A90.59,90.59,0,0,1,55.73,190Z"/><path class="cls-6" d="M43.15,163c-1.63,2.37-5.2,9.26-2,20.91,0,0,.42,5,11.51,1.41A79,79,0,0,1,43.15,163Z"/><circle class="cls-7" cx="163.42" cy="166.03" r="10.97"/><ellipse class="cls-3" cx="77.81" cy="134.57" rx="38.26" ry="15.45" transform="translate(-77.59 138.15) rotate(-61.28)"/><path class="cls-4" d="M91.36,142c5.43-9.91,8.57-19.76,9.18-27.41-.85-3.12-2.45-5.41-4.79-6.44-6.8-3-17.23,5.78-23.31,19.58s-5.49,27.42,1.3,30.41a8.31,8.31,0,0,0,6.38-.1A84.75,84.75,0,0,0,91.36,142Z"/><circle class="cls-6" cx="173.96" cy="160.15" r="5.09"/><path class="cls-7" d="M94.47,126c-3.62-1.93-9,1.13-12.06,6.84s-2.56,11.9,1.06,13.83a6,6,0,0,0,5.18,0Q90,144.39,91.36,142a90,90,0,0,0,5.73-12.64A5.54,5.54,0,0,0,94.47,126Z"/><path class="cls-6" d="M97.85,127.14a5.54,5.54,0,0,0-4-.63,5.48,5.48,0,0,0,0,10.68A85.41,85.41,0,0,0,97.85,127.14Z"/></g></g></svg>