<svg xmlns="http://www.w3.org/2000/svg" xmlns:xlink="http://www.w3.org/1999/xlink" viewBox="0 0 276.23 276.23"><defs><style>.cls-1{fill:#0ebeff;}.cls-2{opacity:0.4;}.cls-3{fill:#fff;}.cls-4{fill:#6890e3;}.cls-5{opacity:0.53;fill:url(#linear-gradient);}.cls-6{opacity:0.75;}.cls-7{fill:#0d1d35;}.cls-8{fill:#fa539a;}</style><linearGradient id="linear-gradient" x1="145.57" y1="244.37" x2="145.57" y2="171.32" gradientTransform="translate(337.03 41.31) rotate(83.99)" gradientUnits="userSpaceOnUse"><stop offset="0" stop-color="#fff" stop-opacity="0.75"/><stop offset="0.63" stop-opacity="0.8"/></linearGradient></defs><title>face2-circle</title><g id="Layer_2" data-name="Layer 2"><g id="drawing"><circle class="cls-1" cx="138.11" cy="138.11" r="138.11"/><path class="cls-2" d="M186,68.22a35.12,35.12,0,0,0-24.54,10.29c-7.76-25.05-28.56-43-53-43-31.07,0-56.25,29-56.25,64.72S77.36,165,108.43,165c19.26,0,36.26-11.15,46.4-28.13,6.88,11.23,18.26,18.57,31.14,18.57,21,0,38-19.51,38-43.59S207,68.22,186,68.22Z"/><path class="cls-3" d="M186.22,75.93a35.48,35.48,0,0,0-26,11.33,53.38,53.38,0,1,0-6,40.42,35.73,35.73,0,1,0,32-51.75Z"/><circle class="cls-4" cx="175.53" cy="112.21" r="17.81"/><ellipse class="cls-5" cx="145.57" cy="207.85" rx="36.68" ry="16.74" transform="translate(-76.38 330.85) rotate(-83.99)"/><circle class="cls-4" cx="127.14" cy="104.84" r="27.24"/><circle class="cls-6" cx="133.32" cy="104.84" r="14.61"/><circle class="cls-6" cx="171.15" cy="112.21" r="9.98"/><ellipse class="cls-7" cx="145.57" cy="207.85" rx="31.49" ry="14.9" transform="translate(-76.38 330.85) rotate(-83.99)"/><path class="cls-8" d="M158.85,218.2c-2.83-5-7.53-8.44-13.08-8.9-6-.5-11.64,2.63-15.25,7.81.8,12.23,5.35,21.38,11.75,22C149,239.87,155.67,231,158.85,218.2Z"/><path class="cls-2" d="M129.56,241.56s.17,15.19,12.63,14.61,14.95-13.66,14.88-13.93L157,242a1.07,1.07,0,0,0-1.54,0s-6.25,10.34-13.42,10.24c0,0-6.17,0-11.26-9.9C130.79,242.27,130.24,240.91,129.56,241.56Z"/><circle class="cls-3" cx="121.13" cy="98.05" r="6.14"/><circle class="cls-3" cx="178.66" cy="108.24" r="5.68"/></g></g></svg>