<svg xmlns="http://www.w3.org/2000/svg" viewBox="0 0 558 105.31"><defs><style>.cls-1,.cls-10{fill:#fff;}.cls-2{fill:#0ebeff;}.cls-3{fill:#2caff6;}.cls-4{fill:#4a9fec;}.cls-5{fill:#6890e3;}.cls-6{fill:#a571d0;}.cls-7{fill:#c361c6;}.cls-8{fill:#e152bd;}.cls-9{fill:#ff42b3;}.cls-10,.cls-13{opacity:0.5;}.cls-11{opacity:0.65;}.cls-12{opacity:0.36;}</style></defs><title>logo-dark-bg</title><g id="Layer_2" data-name="Layer 2"><g id="logo-text"><rect class="cls-1" x="35.44" y="15.19" width="31.31" height="11.74"/><polygon class="cls-1" points="40.58 34.92 40.58 22.94 42.86 22.94 42.86 19.57 35.44 19.57 35.44 4.86 63.51 4.86 63.51 19.57 55.69 19.57 55.69 22.94 58.02 22.94 58.02 34.92 40.58 34.92"/><path class="cls-1" d="M62.75,34.92v-12h2.33V16.27H62.75V4.86h14.8v6.71h.14a9.34,9.34,0,0,1,7.07,2.77,10.11,10.11,0,0,1,2.54,7.2v1.4h2.21v12Z"/><path class="cls-1" d="M101,35.32a12.88,12.88,0,0,1-5-1,11.22,11.22,0,0,1-6.35-6.65,12.92,12.92,0,0,1-.8-4.52,12.31,12.31,0,0,1,.86-4.58,11.62,11.62,0,0,1,6.26-6.46,12.16,12.16,0,0,1,4.82-1,12,12,0,0,1,4.72.91,10.6,10.6,0,0,1,3.71,2.62,11.23,11.23,0,0,1,2.25,3.77,13.56,13.56,0,0,1,.79,4.1c0,.31,0,.62.06.92s0,.74,0,1.13l-.28,3.69h-.76l1.35,2.51-3.22,2c-.63.39-1.23.73-1.78,1a13.86,13.86,0,0,1-2,.83,13.06,13.06,0,0,1-2.2.51A17,17,0,0,1,101,35.32Z"/><path class="cls-1" d="M44.58,26.94h2.28V12.72H44.18v2.85H39.44V8.86H59.51v6.71H54.73V12.72h-3V26.94H54v4H44.58Z"/><path class="cls-1" d="M66.75,8.28h6.8v9A6.93,6.93,0,0,1,75.43,16a5.73,5.73,0,0,1,2.26-.44,5.48,5.48,0,0,1,4.17,1.52,6.24,6.24,0,0,1,1.44,4.45v5.4h2.21v4H78.77V22.55a3,3,0,0,0-.62-2,2.06,2.06,0,0,0-1.62-.73,3.3,3.3,0,0,0-1.43.37,6.4,6.4,0,0,0-1.55,1.06v5.68h2.21v4h-9v-4h2.33V12.27H66.75Z"/><path class="cls-1" d="M97.13,24.33l.05.45a2.84,2.84,0,0,0,.54,1.15,3.59,3.59,0,0,0,.91.83,4.16,4.16,0,0,0,1.16.5,5.21,5.21,0,0,0,1.3.17,9.69,9.69,0,0,0,1.24-.08,10.18,10.18,0,0,0,1.15-.22c.37-.09.72-.2,1.07-.32l1.07-.38,1.6,3c-.56.34-1.06.63-1.52.87a11.81,11.81,0,0,1-1.39.59,9.55,9.55,0,0,1-1.49.34,13.83,13.83,0,0,1-1.83.11,8.87,8.87,0,0,1-3.49-.65,7.31,7.31,0,0,1-4.16-4.35,9.09,9.09,0,0,1-.55-3.14,8.43,8.43,0,0,1,.58-3.11A7.56,7.56,0,0,1,95,17.53a7.36,7.36,0,0,1,2.51-1.71,8.65,8.65,0,0,1,6.38,0,6.67,6.67,0,0,1,2.32,1.63,7.24,7.24,0,0,1,1.45,2.45,9.53,9.53,0,0,1,.56,3c0,.24,0,.48.05.72s0,.48,0,.73Zm3.48-5.5a4.08,4.08,0,0,0-1.39.2,3,3,0,0,0-1,.53,2.7,2.7,0,0,0-.62.78,4.32,4.32,0,0,0-.37.92h6.3a4,4,0,0,0-.29-.93,2.38,2.38,0,0,0-.52-.77,2.28,2.28,0,0,0-.85-.53A3.5,3.5,0,0,0,100.61,18.83Z"/><path class="cls-1" d="M516.7,105.31c.74,0,1.47,0,2.21-.06l.55,0,1.62-.13.55-.07c.54-.07,1.08-.14,1.64-.23l.43-.07c.57-.1,1.15-.21,1.69-.33l.31-.07c.63-.14,1.24-.29,1.91-.47l.12,0A41.28,41.28,0,0,0,534.89,27a26.08,26.08,0,0,0-8.51-18.43,26.11,26.11,0,0,0-40.66,2.58,26.25,26.25,0,0,0-19.36,11.62H41.3c-.69,0-1.38,0-2.06.05s-1.11.07-1.64.12l-.36,0A41.28,41.28,0,0,0,17.3,97.6l.25.18a44.48,44.48,0,0,0,4.5,2.76l.31.16c.67.34,1.35.68,2.09,1l.35.15c.85.37,1.65.69,2.45,1l.22.08c.69.24,1.4.47,2.16.69l.62.18c.69.19,1.39.37,2.09.52l.45.1c.81.17,1.66.33,2.51.45l.6.08c.68.09,1.36.16,2.09.22l.69,0c1,.06,1.8.09,2.62.09"/><circle cx="507.11" cy="26.16" r="16.1"/><circle class="cls-1" cx="508.8" cy="27.84" r="16.1"/><path class="cls-2" d="M41.3,95.36a31.3,31.3,0,1,1,0-62.59H118a32.79,32.79,0,0,0,0,62.59Z"/><path class="cls-3" d="M127.73,95.36a31.3,31.3,0,0,1,0-62.59h40.89a32.79,32.79,0,0,0,0,62.59Z"/><path class="cls-4" d="M178.4,95.36a31.3,31.3,0,0,1,0-62.59h40.89a32.79,32.79,0,0,0,0,62.59Z"/><path class="cls-5" d="M229.07,95.36a31.3,31.3,0,0,1,0-62.59H270a32.79,32.79,0,0,0,0,62.59Z"/><path class="cls-1" d="M279.75,95.36a31.3,31.3,0,1,1,0-62.59h40.88a32.79,32.79,0,0,0,0,62.59Z"/><path class="cls-6" d="M279.75,95.36a31.3,31.3,0,1,1,0-62.59h40.88a32.79,32.79,0,0,0,0,62.59Z"/><path class="cls-7" d="M330.42,95.36a31.3,31.3,0,1,1,0-62.59H371.3a32.79,32.79,0,0,0,0,62.59Z"/><path class="cls-8" d="M381.09,95.36a31.3,31.3,0,1,1,0-62.59H422a32.79,32.79,0,0,0,0,62.59Z"/><path class="cls-9" d="M431.76,95.36a31.3,31.3,0,1,1,0-62.59H516.7a31.3,31.3,0,1,1,0,62.59Z"/><path class="cls-10" d="M516.7,32.77H41.3a32,32,0,0,0-6.07.59v0A3.79,3.79,0,0,0,39,37.18H522a3.79,3.79,0,0,0,3.7-3.1A31.15,31.15,0,0,0,516.7,32.77Z"/><g class="cls-11"><path class="cls-12" d="M539.79,85.12a45.32,45.32,0,0,1-10.42,4.28s-49.32-.16-116.36-.33a31.13,31.13,0,0,0,18.75,6.29H516.7A31.17,31.17,0,0,0,539.79,85.12Z"/><path class="cls-12" d="M381.09,95.36H422a32.53,32.53,0,0,1-11.39-6.3L362.19,89A31,31,0,0,0,381.09,95.36Z"/><path class="cls-12" d="M330.42,95.36H371.3A32.61,32.61,0,0,1,359.78,89c-15.79,0-32-.07-48.39-.09A31.1,31.1,0,0,0,330.42,95.36Z"/><path class="cls-12" d="M279.75,95.36h40.88A32.76,32.76,0,0,1,309,88.85l-48.38-.07A31.1,31.1,0,0,0,279.75,95.36Z"/><path class="cls-12" d="M229.07,95.36H270a32.79,32.79,0,0,1-11.71-6.58l-48.36,0A31.09,31.09,0,0,0,229.07,95.36Z"/><path class="cls-12" d="M178.4,95.36h40.89a32.58,32.58,0,0,1-11.75-6.62h-48.3A31.07,31.07,0,0,0,178.4,95.36Z"/><path class="cls-12" d="M127.73,95.36h40.89a32.75,32.75,0,0,1-11.74-6.61c-17.65,0-33.92,0-48.19.1A31.16,31.16,0,0,0,127.73,95.36Z"/><path class="cls-12" d="M41.3,95.36H118a32.76,32.76,0,0,1-11.63-6.51c-28.79.1-49,.28-55.34.55-19.93.87-31.28-5.32-37.3-10.65A31.31,31.31,0,0,0,41.3,95.36Z"/></g><circle cx="488.13" cy="37.14" r="16.1"/><circle class="cls-1" cx="489.82" cy="38.83" r="16.1"/><ellipse class="cls-2" cx="494.95" cy="37.37" rx="6.41" ry="6.92"/><circle cx="496.18" cy="38.83" r="4.43"/><circle class="cls-1" cx="493.46" cy="35.15" r="1.94"/><ellipse class="cls-2" cx="510.83" cy="23.49" rx="6.41" ry="6.92"/><circle cx="512.05" cy="24.96" r="4.43"/><circle class="cls-1" cx="509.34" cy="21.27" r="1.94"/><path class="cls-13" d="M527.15,59.57a1.51,1.51,0,0,0-.86-.77,1.48,1.48,0,0,0-1.15.07,1.5,1.5,0,0,0-.7,2,8.71,8.71,0,1,1-15.67,7.6,1.53,1.53,0,0,0-.86-.76,1.51,1.51,0,0,0-1.85,2.08,11.65,11.65,0,0,0,6.71,6,11.93,11.93,0,0,0,3.85.65,11.73,11.73,0,0,0,10.53-16.83Z"/><path class="cls-1" d="M526.11,58.53a1.47,1.47,0,0,0-.86-.76,1.49,1.49,0,0,0-1.15.07,1.47,1.47,0,0,0-.76.86,1.49,1.49,0,0,0,.07,1.15,8.71,8.71,0,0,1-15.68,7.6,1.52,1.52,0,0,0-2-.7,1.5,1.5,0,0,0-.76.86,1.48,1.48,0,0,0,.07,1.15,11.72,11.72,0,0,0,21.08-10.23Z"/><path class="cls-13" d="M63.79,72.08H66.3L70,56.18H67.16l1-4.52h12.6a7.55,7.55,0,0,1,2.79.48,5.94,5.94,0,0,1,2,1.32,5.76,5.76,0,0,1,1.26,2,7.25,7.25,0,0,1,.42,2.5,8,8,0,0,1-.46,2.7A5.84,5.84,0,0,1,85.32,63a7.91,7.91,0,0,1-1.94,1.3,1.55,1.55,0,0,1,.23.19,5.25,5.25,0,0,1,1.27,1.78,5.36,5.36,0,0,1,.43,2.15A8.78,8.78,0,0,1,84.64,72a6.73,6.73,0,0,1-1.9,2.55,8.2,8.2,0,0,1-3,1.53,13.85,13.85,0,0,1-3.9.51H62.74Zm9.61-5.8-1.34,5.8h4.09a4.21,4.21,0,0,0,1.52-.25,3,3,0,0,0,1.12-.73A3.16,3.16,0,0,0,79.48,70a4.18,4.18,0,0,0,.24-1.44,2.66,2.66,0,0,0-.15-.9,2,2,0,0,0-.43-.72,2,2,0,0,0-.7-.48,2.78,2.78,0,0,0-1-.17Zm2.36-10.1-1.3,5.59h3.81a4.16,4.16,0,0,0,1.38-.22,3.2,3.2,0,0,0,1.11-.64,3.07,3.07,0,0,0,.74-1,3.1,3.1,0,0,0,.27-1.31,2.83,2.83,0,0,0-.15-.93,2.39,2.39,0,0,0-.46-.77,2,2,0,0,0-.74-.53,2.85,2.85,0,0,0-1-.19Z"/><path class="cls-1" d="M62.49,70.79H65l3.68-15.9H65.86l1-4.52H79.49a7.61,7.61,0,0,1,2.8.48,5.54,5.54,0,0,1,2,1.32,5.4,5.4,0,0,1,1.26,2,7,7,0,0,1,.43,2.5,8.23,8.23,0,0,1-.46,2.7A6.09,6.09,0,0,1,84,61.71,7.56,7.56,0,0,1,82.09,63l.23.2A5.21,5.21,0,0,1,83.59,65,5.54,5.54,0,0,1,84,67.14a9,9,0,0,1-.66,3.57,6.88,6.88,0,0,1-1.9,2.54,8.25,8.25,0,0,1-3,1.53,13.83,13.83,0,0,1-3.89.51H61.44ZM72.11,65l-1.35,5.81h4.1a4.25,4.25,0,0,0,1.52-.26,3,3,0,0,0,1.11-.72,2.93,2.93,0,0,0,.69-1.12,4.1,4.1,0,0,0,.24-1.44,2.6,2.6,0,0,0-.15-.89,2.11,2.11,0,0,0-.42-.73,1.88,1.88,0,0,0-.71-.47,2.5,2.5,0,0,0-1-.18Zm2.35-10.09-1.3,5.59H77a4.16,4.16,0,0,0,1.38-.22,3.4,3.4,0,0,0,1.11-.64,3.11,3.11,0,0,0,.74-1,3.05,3.05,0,0,0,.27-1.3,2.6,2.6,0,0,0-.16-.93,2.2,2.2,0,0,0-.45-.77,1.93,1.93,0,0,0-.75-.53,2.61,2.61,0,0,0-1-.19Z"/><path class="cls-13" d="M119.53,77.1a10.83,10.83,0,0,1-4.12-.77A9.42,9.42,0,0,1,110,70.87a11.48,11.48,0,0,1-.77-4.28,15.88,15.88,0,0,1,.59-4.38,15.52,15.52,0,0,1,1.64-3.76A14.67,14.67,0,0,1,114,55.4,15.07,15.07,0,0,1,117,53.12a15.32,15.32,0,0,1,3.49-1.42,14.17,14.17,0,0,1,3.71-.5,11,11,0,0,1,4.23.78,9.12,9.12,0,0,1,3.24,2.16,9.44,9.44,0,0,1,2.07,3.33,12,12,0,0,1,.73,4.27,16.26,16.26,0,0,1-.55,4.31,14.7,14.7,0,0,1-7,9.1,15.49,15.49,0,0,1-3.55,1.45A15.25,15.25,0,0,1,119.53,77.1Zm.62-5.53a6.65,6.65,0,0,0,2.16-.35,8.24,8.24,0,0,0,2-1A9.12,9.12,0,0,0,126,68.75a10.05,10.05,0,0,0,1.33-1.91,11,11,0,0,0,.86-2.2,9.17,9.17,0,0,0,.31-2.39,6.88,6.88,0,0,0-.34-2.24,5,5,0,0,0-1-1.75,4.48,4.48,0,0,0-1.57-1.13,5.06,5.06,0,0,0-2.07-.4,6.86,6.86,0,0,0-3.19.77,8.85,8.85,0,0,0-2.64,2.07,10.34,10.34,0,0,0-1.81,3,9.28,9.28,0,0,0-.68,3.5,6.88,6.88,0,0,0,.35,2.24,5.08,5.08,0,0,0,1,1.75,4.67,4.67,0,0,0,1.57,1.13A5,5,0,0,0,120.15,71.57Z"/><path class="cls-1" d="M118.23,75.8a10.87,10.87,0,0,1-4.12-.76,9.57,9.57,0,0,1-5.39-5.46A11.56,11.56,0,0,1,108,65.3a15.82,15.82,0,0,1,.59-4.38,15,15,0,0,1,1.64-3.76,14.62,14.62,0,0,1,2.46-3.06,15.63,15.63,0,0,1,3.08-2.28,15.39,15.39,0,0,1,3.5-1.42,14.14,14.14,0,0,1,3.7-.49,11.27,11.27,0,0,1,4.24.77,9.59,9.59,0,0,1,3.24,2.16,9.77,9.77,0,0,1,2.07,3.33,12,12,0,0,1,.73,4.28,16.13,16.13,0,0,1-.55,4.3,15.75,15.75,0,0,1-1.55,3.74,14.64,14.64,0,0,1-2.39,3.06,14.46,14.46,0,0,1-3,2.3,14.72,14.72,0,0,1-3.55,1.45A15.2,15.2,0,0,1,118.23,75.8Zm.63-5.52a6.6,6.6,0,0,0,2.15-.36,8,8,0,0,0,2-1,9.24,9.24,0,0,0,1.7-1.5A10.14,10.14,0,0,0,126,65.54a9.77,9.77,0,0,0,.86-2.2,9.1,9.1,0,0,0,.32-2.38,7.23,7.23,0,0,0-.34-2.25,5.11,5.11,0,0,0-1-1.74,4.29,4.29,0,0,0-1.56-1.13,5.1,5.1,0,0,0-2.07-.41,6.87,6.87,0,0,0-3.19.78,8.69,8.69,0,0,0-2.65,2.07,10.37,10.37,0,0,0-1.81,3,9.31,9.31,0,0,0-.67,3.5,7,7,0,0,0,.34,2.25,5.15,5.15,0,0,0,1,1.74,4.29,4.29,0,0,0,1.56,1.13A5,5,0,0,0,118.86,70.28Z"/><path class="cls-13" d="M171.19,77.1a10.87,10.87,0,0,1-4.12-.77,9.49,9.49,0,0,1-5.39-5.46,11.48,11.48,0,0,1-.76-4.28,15.53,15.53,0,0,1,2.22-8.14,14.67,14.67,0,0,1,2.47-3.05,15.19,15.19,0,0,1,6.57-3.7,14.23,14.23,0,0,1,3.71-.5,11.08,11.08,0,0,1,4.24.78,9.17,9.17,0,0,1,3.23,2.16,9.46,9.46,0,0,1,2.08,3.33,12.19,12.19,0,0,1,.73,4.27,16.68,16.68,0,0,1-.55,4.31,15.29,15.29,0,0,1-1.56,3.73,14.57,14.57,0,0,1-5.43,5.37,15,15,0,0,1-7.44,1.95Zm.62-5.53a6.61,6.61,0,0,0,2.16-.35,8.06,8.06,0,0,0,2-1,8.81,8.81,0,0,0,1.69-1.49A10.05,10.05,0,0,0,179,66.84a10.47,10.47,0,0,0,.86-2.2,9.17,9.17,0,0,0,.31-2.39A7.17,7.17,0,0,0,179.8,60a5.06,5.06,0,0,0-1-1.75,4.54,4.54,0,0,0-1.56-1.13,5.15,5.15,0,0,0-2.08-.4,6.82,6.82,0,0,0-3.18.77,9,9,0,0,0-2.65,2.07,10.34,10.34,0,0,0-1.81,3,9.27,9.27,0,0,0-.67,3.5,6.88,6.88,0,0,0,.34,2.24,5,5,0,0,0,1,1.75,4.54,4.54,0,0,0,1.56,1.13A5,5,0,0,0,171.81,71.57Z"/><path class="cls-1" d="M169.9,75.8a10.79,10.79,0,0,1-4.12-.76,9.55,9.55,0,0,1-5.4-5.46,11.56,11.56,0,0,1-.76-4.28,15.82,15.82,0,0,1,.59-4.38,15.35,15.35,0,0,1,1.64-3.76,15,15,0,0,1,2.46-3.06,15.41,15.41,0,0,1,3.09-2.28,15.14,15.14,0,0,1,3.49-1.42,14.16,14.16,0,0,1,3.71-.49,11.26,11.26,0,0,1,4.23.77,9.4,9.4,0,0,1,3.24,2.16,9.77,9.77,0,0,1,2.07,3.33,12,12,0,0,1,.73,4.28,16.13,16.13,0,0,1-.55,4.3,15.34,15.34,0,0,1-1.55,3.74,14.64,14.64,0,0,1-2.39,3.06,14.21,14.21,0,0,1-3,2.3,14.72,14.72,0,0,1-3.55,1.45A15.18,15.18,0,0,1,169.9,75.8Zm.62-5.52a6.6,6.6,0,0,0,2.15-.36,8.27,8.27,0,0,0,2-1,9.52,9.52,0,0,0,1.69-1.5,9.7,9.7,0,0,0,1.32-1.91,10.29,10.29,0,0,0,.87-2.2,9.53,9.53,0,0,0,.31-2.38,7,7,0,0,0-.34-2.25,5,5,0,0,0-1-1.74A4.13,4.13,0,0,0,176,55.84a5.06,5.06,0,0,0-2.07-.41,6.87,6.87,0,0,0-3.19.78,8.69,8.69,0,0,0-2.65,2.07,10.35,10.35,0,0,0-1.8,3,9.32,9.32,0,0,0-.68,3.5,6.94,6.94,0,0,0,.35,2.25,5.13,5.13,0,0,0,1,1.74,4.29,4.29,0,0,0,1.56,1.13A5,5,0,0,0,170.52,70.28Z"/><path class="cls-13" d="M215.05,51.66h11.12l-1,4.52h-2.48L219,72.08h2.81l-1,4.51H209.6l1.05-4.51h2.55l3.68-15.9H214Zm16.07,4.49,1-4.49h10.16l-1,4.52h-2.2L228.54,64l5.75,8h2.42l-1,4.51h-9.27l1-4.51-6.19-8.53Z"/><path class="cls-1" d="M213.76,50.37h11.11l-1,4.52h-2.48l-3.7,15.9h2.81l-1.05,4.5H208.3l1-4.5h2.55l3.68-15.9h-2.86Zm16.06,4.49,1.05-4.49H241l-1,4.52h-2.2l-10.56,7.84L233,70.79h2.42l-1,4.5h-9.27l1.05-4.5L220,62.26Z"/><path class="cls-13" d="M285.7,51.66h10.06l-1,4.52h-2L282.1,76.59h-6.74l-.13-16-7.84,16h-6.74l-1.14-20.41h-2.69l1-4.52h10.08l-1.05,4.52h-2.06l.64,13.63,8.72-18.15h5.93l.27,18.09,6.85-13.57h-2.58Z"/><path class="cls-1" d="M284.41,50.37h10.06l-1,4.52h-1.95l-10.67,20.4h-6.74l-.14-16-7.84,16h-6.74l-1.13-20.4h-2.7l1-4.52h10.08l-1.06,4.52h-2.05l.64,13.63,8.71-18.15h5.94l.26,18.08,6.86-13.56h-2.59Z"/><path class="cls-13" d="M325,77.1a10.83,10.83,0,0,1-4.12-.77,9.42,9.42,0,0,1-5.39-5.46,11.48,11.48,0,0,1-.77-4.28,15.88,15.88,0,0,1,.59-4.38A15.52,15.52,0,0,1,317,58.45a14.67,14.67,0,0,1,2.47-3.05,15.07,15.07,0,0,1,3.08-2.28A15.32,15.32,0,0,1,326,51.7a14.17,14.17,0,0,1,3.71-.5,11,11,0,0,1,4.23.78,9.12,9.12,0,0,1,3.24,2.16,9.58,9.58,0,0,1,2.07,3.33,12,12,0,0,1,.73,4.27,16.26,16.26,0,0,1-.55,4.31,14.7,14.7,0,0,1-7,9.1,15.49,15.49,0,0,1-3.55,1.45A15.31,15.31,0,0,1,325,77.1Zm.62-5.53a6.65,6.65,0,0,0,2.16-.35,8.24,8.24,0,0,0,2-1,9.12,9.12,0,0,0,1.69-1.49,10.05,10.05,0,0,0,1.33-1.91,11,11,0,0,0,.86-2.2,9.17,9.17,0,0,0,.31-2.39A6.88,6.88,0,0,0,333.6,60a5,5,0,0,0-1-1.75,4.48,4.48,0,0,0-1.57-1.13,5.06,5.06,0,0,0-2.07-.4,6.86,6.86,0,0,0-3.19.77,8.85,8.85,0,0,0-2.64,2.07,10.34,10.34,0,0,0-1.81,3,9.28,9.28,0,0,0-.68,3.5,6.88,6.88,0,0,0,.35,2.24A5.08,5.08,0,0,0,322,70a4.67,4.67,0,0,0,1.57,1.13A5,5,0,0,0,325.62,71.57Z"/><path class="cls-1" d="M323.7,75.8a10.87,10.87,0,0,1-4.12-.76,9.57,9.57,0,0,1-5.39-5.46,11.56,11.56,0,0,1-.76-4.28,15.53,15.53,0,0,1,2.22-8.14,15,15,0,0,1,2.47-3.06,15.63,15.63,0,0,1,3.08-2.28,15.21,15.21,0,0,1,3.5-1.42,14.09,14.09,0,0,1,3.7-.49,11.27,11.27,0,0,1,4.24.77,9.59,9.59,0,0,1,3.24,2.16A9.77,9.77,0,0,1,338,56.17a12.24,12.24,0,0,1,.73,4.28,16.13,16.13,0,0,1-.55,4.3,15.37,15.37,0,0,1-1.56,3.74,14.27,14.27,0,0,1-2.38,3.06,14.46,14.46,0,0,1-3.05,2.3,14.72,14.72,0,0,1-3.55,1.45A15.2,15.2,0,0,1,323.7,75.8Zm.63-5.52a6.6,6.6,0,0,0,2.15-.36,8,8,0,0,0,2-1,9.24,9.24,0,0,0,1.7-1.5,10.14,10.14,0,0,0,1.32-1.91,9.77,9.77,0,0,0,.86-2.2,9.1,9.1,0,0,0,.32-2.38,7.23,7.23,0,0,0-.34-2.25,5.11,5.11,0,0,0-1-1.74,4.29,4.29,0,0,0-1.56-1.13,5.13,5.13,0,0,0-2.07-.41,6.87,6.87,0,0,0-3.19.78,8.69,8.69,0,0,0-2.65,2.07,10.15,10.15,0,0,0-1.81,3,9.31,9.31,0,0,0-.67,3.5,7,7,0,0,0,.34,2.25,5.15,5.15,0,0,0,1,1.74,4.29,4.29,0,0,0,1.56,1.13A5,5,0,0,0,324.33,70.28Z"/><path class="cls-13" d="M370,51.66h13.27a6.69,6.69,0,0,1,2.84.56,5.68,5.68,0,0,1,3.12,3.5,7.36,7.36,0,0,1,.37,2.32,8.29,8.29,0,0,1-.46,2.88,6.25,6.25,0,0,1-1.43,2.25,7.2,7.2,0,0,1-1.91,1.45c-.62.31-1.07.52-1.33.64a4.68,4.68,0,0,1,.44.48,3.17,3.17,0,0,1,.51,1.06,5.88,5.88,0,0,1,.27,1.7l.1,3.58h2.36l-1.05,4.51h-7.4l.4-5.92a7.45,7.45,0,0,0-.08-1.82,2.65,2.65,0,0,0-.54-1.25,2.35,2.35,0,0,0-1.08-.71,5,5,0,0,0-1.67-.23h-1.58l-1.27,5.42H376l-1,4.51H364.89L366,72.08h2.2l3.7-15.9H369Zm7.58,4.52-1.41,6h3.12a7.53,7.53,0,0,0,1.85-.21,3.84,3.84,0,0,0,1.42-.63,2.94,2.94,0,0,0,.92-1.09,3.5,3.5,0,0,0,.32-1.54,2.55,2.55,0,0,0-.69-1.87,3.1,3.1,0,0,0-2.27-.7Z"/><path class="cls-1" d="M368.73,50.37H382a6.72,6.72,0,0,1,2.84.56,5.77,5.77,0,0,1,2,1.45,5.88,5.88,0,0,1,1.15,2,7.71,7.71,0,0,1,.36,2.33,8.27,8.27,0,0,1-.46,2.87,6.07,6.07,0,0,1-1.43,2.26,7.11,7.11,0,0,1-1.9,1.44L383.2,64c.11.1.25.27.44.49a3.1,3.1,0,0,1,.51,1,6.4,6.4,0,0,1,.26,1.7l.1,3.59h2.37l-1.05,4.5h-7.4l.39-5.92a7.41,7.41,0,0,0-.07-1.81,2.71,2.71,0,0,0-.54-1.25,2.37,2.37,0,0,0-1.08-.72,5.36,5.36,0,0,0-1.68-.23h-1.58l-1.26,5.43h2.1l-1,4.5H363.6l1-4.5h2.2l3.7-15.9h-2.87Zm7.58,4.52-1.42,6H378a7.6,7.6,0,0,0,1.85-.2,4.11,4.11,0,0,0,1.42-.64A2.81,2.81,0,0,0,382.2,59a3.54,3.54,0,0,0,.32-1.55,2.56,2.56,0,0,0-.68-1.86,3.08,3.08,0,0,0-2.28-.7Z"/><path class="cls-13" d="M414.1,72.08h2.24L420,56.18h-2.86l1-4.52h11.31l3,16.71,10.17-16.71H454.3l-1,4.52h-2.53L447,72.08h2.45l-1,4.51H438.37l1.05-4.51h1.89l3.11-13.38L433.29,76.29h-5L425.07,58.5,421.8,72.08h2.36l-1,4.51H413.05Z"/><path class="cls-1" d="M412.81,70.79H415l3.69-15.9h-2.87l1.06-4.52h11.31l3,16.7,10.18-16.7H453l-1,4.52h-2.53l-3.7,15.9h2.45l-1,4.5H437.07l1.05-4.5H440l3.1-13.38L432,75H427l-3.27-17.79L420.5,70.79h2.37l-1,4.5H411.75Z"/><path d="M44.58,26.94h2.28V12.72H44.18v2.85H39.44V8.86H59.51v6.71H54.73V12.72h-3V26.94H54v4H44.58Z"/><path d="M66.75,8.28h6.8v9A6.93,6.93,0,0,1,75.43,16a5.73,5.73,0,0,1,2.26-.44,5.48,5.48,0,0,1,4.17,1.52,6.24,6.24,0,0,1,1.44,4.45v5.4h2.21v4H78.77V22.55a3,3,0,0,0-.62-2,2.06,2.06,0,0,0-1.62-.73,3.3,3.3,0,0,0-1.43.37,6.4,6.4,0,0,0-1.55,1.06v5.68h2.21v4h-9v-4h2.33V12.27H66.75Z"/><path d="M97.13,24.33l.05.45a2.84,2.84,0,0,0,.54,1.15,3.59,3.59,0,0,0,.91.83,4.16,4.16,0,0,0,1.16.5,5.21,5.21,0,0,0,1.3.17,9.69,9.69,0,0,0,1.24-.08,10.18,10.18,0,0,0,1.15-.22c.37-.09.72-.2,1.07-.32l1.07-.38,1.6,3c-.56.34-1.06.63-1.52.87a11.81,11.81,0,0,1-1.39.59,9.55,9.55,0,0,1-1.49.34,13.83,13.83,0,0,1-1.83.11,8.87,8.87,0,0,1-3.49-.65,7.31,7.31,0,0,1-4.16-4.35,9.09,9.09,0,0,1-.55-3.14,8.43,8.43,0,0,1,.58-3.11A7.56,7.56,0,0,1,95,17.53a7.36,7.36,0,0,1,2.51-1.71,8.65,8.65,0,0,1,6.38,0,6.67,6.67,0,0,1,2.32,1.63,7.24,7.24,0,0,1,1.45,2.45,9.53,9.53,0,0,1,.56,3c0,.24,0,.48.05.72s0,.48,0,.73Zm3.48-5.5a4.08,4.08,0,0,0-1.39.2,3,3,0,0,0-1,.53,2.7,2.7,0,0,0-.62.78,4.32,4.32,0,0,0-.37.92h6.3a4,4,0,0,0-.29-.93,2.38,2.38,0,0,0-.52-.77,2.28,2.28,0,0,0-.85-.53A3.5,3.5,0,0,0,100.61,18.83Z"/></g></g></svg>