<svg xmlns="http://www.w3.org/2000/svg" xmlns:xlink="http://www.w3.org/1999/xlink" viewBox="0 0 276.23 276.23"><defs><style>.cls-1{fill:#0ebeff;}.cls-2{opacity:0.4;}.cls-3{fill:#fff;}.cls-4{fill:#6890e3;}.cls-5{opacity:0.53;fill:url(#linear-gradient);}.cls-6{opacity:0.75;}.cls-7{fill:#0d1d35;}.cls-8{fill:#fa539a;}</style><linearGradient id="linear-gradient" x1="145.59" y1="236.64" x2="145.59" y2="163.59" gradientTransform="translate(329.36 34.37) rotate(83.99)" gradientUnits="userSpaceOnUse"><stop offset="0" stop-color="#fff" stop-opacity="0.75"/><stop offset="0.63" stop-opacity="0.8"/></linearGradient></defs><title>face2</title><g id="Layer_2" data-name="Layer 2"><g id="drawing"><rect class="cls-1" width="276.23" height="276.23"/><path class="cls-2" d="M186,60.48a35.13,35.13,0,0,0-24.54,10.3c-7.76-25.06-28.56-43-53-43-31.07,0-56.26,29-56.26,64.72s25.19,64.72,56.26,64.72c19.26,0,36.25-11.14,46.39-28.12,6.89,11.22,18.26,18.57,31.15,18.57,21,0,38-19.52,38-43.6S207,60.48,186,60.48Z"/><path class="cls-3" d="M186.24,68.2a35.48,35.48,0,0,0-26,11.33,53.39,53.39,0,1,0-6,40.41,35.73,35.73,0,1,0,32-51.74Z"/><circle class="cls-4" cx="175.55" cy="104.48" r="17.81"/><ellipse class="cls-5" cx="145.59" cy="200.11" rx="36.68" ry="16.74" transform="translate(-68.67 323.95) rotate(-83.99)"/><circle class="cls-4" cx="127.16" cy="97.11" r="27.24"/><circle class="cls-6" cx="133.33" cy="97.11" r="14.61"/><circle class="cls-6" cx="171.17" cy="104.48" r="9.98"/><ellipse class="cls-7" cx="145.59" cy="200.11" rx="31.49" ry="14.9" transform="translate(-68.67 323.95) rotate(-83.99)"/><path class="cls-8" d="M158.87,210.46c-2.83-5-7.53-8.44-13.08-8.9-6-.49-11.64,2.64-15.26,7.82.81,12.22,5.36,21.37,11.76,22C149,232.13,155.69,223.25,158.87,210.46Z"/><path class="cls-2" d="M129.58,233.82s.17,15.19,12.63,14.61,14.95-13.65,14.88-13.93l-.07-.27a1.05,1.05,0,0,0-1.53,0s-6.25,10.34-13.42,10.24c0,0-6.18,0-11.26-9.9C130.81,234.54,130.26,233.17,129.58,233.82Z"/><circle class="cls-3" cx="121.15" cy="90.32" r="6.14"/><circle class="cls-3" cx="178.68" cy="100.5" r="5.68"/></g></g></svg>