<svg xmlns="http://www.w3.org/2000/svg" viewBox="0 0 100.2 86.71"><defs><style>.cls-1{fill:#0ebeff;}.cls-2{fill:#ff42b3;}.cls-3{fill:#fff;}.cls-4{fill:#4a9fec;}.cls-5{fill:#c361c6;}</style></defs><title>logo-compact4</title><g id="Layer_2" data-name="Layer 2"><g id="icons"><path class="cls-1" d="M37.2,42V0h42a21,21,0,0,1,0,42Z"/><path class="cls-2" d="M37.2,86.71v-42h42a21,21,0,1,1,0,42Z"/><circle cx="64.26" cy="44.15" r="10.81"/><circle class="cls-3" cx="65.39" cy="45.28" r="10.81"/><ellipse class="cls-1" cx="66.76" cy="42.36" rx="4.3" ry="4.64"/><circle cx="67.58" cy="43.34" r="2.97"/><circle class="cls-3" cx="65.76" cy="40.87" r="1.3"/><path class="cls-4" d="M21,42A21,21,0,0,1,21,0H34.46V42Z"/><path class="cls-5" d="M21,86.71a21,21,0,0,1,0-42H34.46v42Z"/></g></g></svg>