<svg xmlns="http://www.w3.org/2000/svg" viewBox="0 0 649.07 554.73"><defs><style>.cls-1{fill:#1a1a1a;}.cls-2{fill:#c361c6;}.cls-3{opacity:0.5;}.cls-4{opacity:0.4;}.cls-5{fill:#effdfb;}.cls-6{fill:#1fc1db;}.cls-10,.cls-7{fill:#fff;}.cls-8{fill:#115b6f;}.cls-9{opacity:0.35;}.cls-10{opacity:0.2;}</style></defs><title>try</title><g id="Layer_2" data-name="Layer 2"><g id="drawing"><ellipse class="cls-1" cx="428.09" cy="462.56" rx="220.98" ry="92.17"/><path class="cls-2" d="M103.92,146.17C102.85,114,107.22,80.73,123,52.61S167.3,2.28,199.46.17c25.85-1.7,51.09,9.42,72.06,24.62,17,12.33,32.42,28.21,39.11,48.12,15.78,47-21,97.89-11.29,146.51,3.61,18.1,13.46,34.34,24.43,49.18,42.71,57.75,103.39,99,159.58,143.75,11.28,9,23.4,20.08,23.53,34.49.1,10.42-6.57,20.07-15.27,25.8S472.4,480.7,462,481.87c-35.73,4-72-4.84-104.78-19.52-29.24-13.07-59.9-30.2-84.88-50.37-19.72-15.92-42-28.25-61.28-45a315.15,315.15,0,0,1-90.24-132.47A294.38,294.38,0,0,1,103.92,146.17Z"/><path class="cls-3" d="M308.47,310.08a159.73,159.73,0,0,0,13.86-18.18,131.44,131.44,0,0,0,8.43-14.22q-2.17-2.73-4.29-5.51c-4.17,5-7.84,10.61-12,15.63-4.9,5.94-9.91,11.86-15.2,17.47a197.12,197.12,0,0,1-36.46,31,152.91,152.91,0,0,1-43.31,19.38,70.48,70.48,0,0,1-17.93,2.83c3.11,2.92,6.28,5.8,9.51,8.59l.09.08c10.48-1.39,20.92-5,30.43-8.89A181.58,181.58,0,0,0,308.47,310.08Z"/><path class="cls-3" d="M347.09,393.77c9.69-11.43,18.31-24.13,23.63-38.21,3.29-8.7,6.35-18.74,6.78-28.56-2.57-2.34-5.12-4.72-7.65-7.11-2,10.85-3.58,21.49-8.37,31.78a155.3,155.3,0,0,1-21.82,34.67c-8.91,10.57-19.23,20-31.24,26.93a85.86,85.86,0,0,1-19.26,8.07c-1.1.32-2.21.59-3.31.84q5.2,3.72,10.62,7.27A101.61,101.61,0,0,0,312,422.91C325.57,415.88,337.25,405.37,347.09,393.77Z"/><path class="cls-3" d="M433.31,434c6.69-14.71,13-32,14.83-49.08L438,377c-.22,2.41-.51,4.8-.88,7.14A173.6,173.6,0,0,1,423.13,430c-6,12.93-14.63,24.35-26.49,32.46a80.49,80.49,0,0,1-17,8.73q7.41,2.55,15,4.61C411.61,467,425.32,451.5,433.31,434Z"/><path class="cls-3" d="M173.86,291.84a200.8,200.8,0,0,0,108.41-46.46,163,163,0,0,0,18.86-18.76c-.7-2.37-1.31-4.76-1.79-7.2s-.88-5.08-1.15-7.63c-16.94,19.3-36.34,36-59.68,47.94-29.91,15.37-64.11,22.68-97.66,19.68q3.74,6.88,7.8,13.58A205.82,205.82,0,0,0,173.86,291.84Z"/><ellipse class="cls-4" cx="146.25" cy="94.79" rx="30.48" ry="13.1" transform="translate(-7.15 177.51) rotate(-61.28)"/><ellipse class="cls-4" cx="203.45" cy="118.06" rx="30.69" ry="33.81"/><circle class="cls-5" cx="203.45" cy="118.06" r="28.51"/><circle class="cls-6" cx="207.11" cy="117.82" r="18.93"/><path class="cls-3" d="M198.69,71.48s10.77-3,28.19,2.85A77.59,77.59,0,0,1,256.66,93c1.27,1.26,5.52-5.36,4.09-8.85s-10.05-3.24-10.05-3.24,8-2.46,8.63-9.43c0,0,.71-5.54-16.55-3,0,0,7.2-4.19,2.69-7.84S225.59,60.57,224,63c0,0,1.26-4.44-2-4.36S204.58,62.42,198.69,71.48Z"/><path class="cls-3" d="M154.08,44.73s4.75-5.94,10.06-4.75,14.17,9.9,13.7,23.29c0,0,6.33-8.08,6.65-17s-5.31-5.23-6.57-3c0,0,2.13-15.13-2.93-15.44s-5.23,5.78-5.23,5.78-.87-7.6-6.34-7.76-3.08,9.42-3.08,9.42-3.49-6.57-6.26-4.91S154.08,44.73,154.08,44.73Z"/><path class="cls-3" d="M245.23,139.53c-1.35-2.61-6.41-1.11-9.26,2l.39.32s3.74-1.87,5.4-.89c-13,20.28-53.15,17.67-53.15,17.67-47.8-1.72-64.15-43.68-66.76-51.43,1.48.23,3.43,1.73,3.56,3,0,0,.24-6.34-5.07-6.73,0,0-5.07,1.5-1.66,8.31,0,0,.87-4,2.3-4.51a1.34,1.34,0,0,1,.54-.07c1.66,26,26.65,55.66,69.94,55.66,38.29,0,49-16.53,51.19-20.78,1,1.71,1.52,3.71,1.31,4.55C244,146.58,246.58,142.14,245.23,139.53Z"/><path class="cls-7" d="M210,161.29c1.75,2.07,6.31,6.76,11,5.64,5.34-1.28,8.43-8.13,8-12A61.9,61.9,0,0,1,210,161.29Z"/><path class="cls-7" d="M191.46,162.81c-1.47,0-2.92,0-4.35-.1.1,2.49,1.36,7.27,9.5,7.15,0,0,7.46-.08,8.31-7.81A112.41,112.41,0,0,1,191.46,162.81Z"/><path class="cls-7" d="M164.82,158.6c.5,3.14,2.18,10,7.16,11.5a9.42,9.42,0,0,0,11.79-7.61A79.94,79.94,0,0,1,164.82,158.6Z"/><path class="cls-7" d="M144.52,147.77c-.46,2.83-1.52,13.19,7.42,15.44,7.67,1.93,10.58-2.58,11.57-5.07A69.24,69.24,0,0,1,144.52,147.77Z"/><path class="cls-7" d="M131.64,134.4c-.29,3.75-.49,12.1,3.35,13.68,4,1.65,6.62-.41,8-1.5A63.27,63.27,0,0,1,131.64,134.4Z"/><path class="cls-7" d="M122.84,115.56c-1.14,1.66-3.63,6.48-1.38,14.62,0,0,.29,3.49,8,1A55.43,55.43,0,0,1,122.84,115.56Z"/><circle class="cls-8" cx="206.97" cy="117.67" r="7.68"/><ellipse class="cls-5" cx="147.09" cy="95.66" rx="26.76" ry="10.81" transform="translate(-7.47 178.7) rotate(-61.28)"/><path class="cls-6" d="M156.57,100.85c3.79-6.93,6-13.82,6.42-19.18a6.47,6.47,0,0,0-3.35-4.5c-4.76-2.09-12.06,4-16.31,13.7s-3.84,19.18.91,21.27a5.8,5.8,0,0,0,4.46-.07A59.08,59.08,0,0,0,156.57,100.85Z"/><circle class="cls-7" cx="214.35" cy="113.55" r="3.56"/><path class="cls-8" d="M158.75,89.65c-2.54-1.35-6.32.79-8.45,4.78s-1.79,8.33.75,9.68a4.21,4.21,0,0,0,3.62,0c.65-1,1.28-2.13,1.9-3.24a63.15,63.15,0,0,0,4-8.84A3.92,3.92,0,0,0,158.75,89.65Z"/><path class="cls-7" d="M161.11,90.46a3.84,3.84,0,0,0-5.7,4.17,3.82,3.82,0,0,0,2.87,2.86A59.37,59.37,0,0,0,161.11,90.46Z"/><path class="cls-2" d="M147.81,226.8c-3,4.69-9.32,6.34-14.81,5.4s-10.37-4-15.09-6.92L87.79,206.4c-8.65-5.43-17.37-10.89-26.91-14.54s-20.05-5.41-30-3.2c-4.06.9-8.06,2.45-12.22,2.29S10,188.22,9.46,184.1a3.61,3.61,0,0,1,1-3.32,4.91,4.91,0,0,1,2.35-.82l16.88-2.81L5.46,166.89c-2.4-1-5.16-2.48-5.44-5.07-.23-2.11,1.48-4.07,3.5-4.7a9.36,9.36,0,0,1,6.19.62c4.44,1.79,8,5.19,12.05,7.74s9.21,4.28,13.57,2.31l-10.82-8.7c-2.54-2-5.25-5.72-3-8.08a4.48,4.48,0,0,1,3.5-1.13c4.15.23,7.46,3.36,10.47,6.21a204.47,204.47,0,0,0,92.92,50.33Z"/><path class="cls-9" d="M146.25,235.28l-27.83-7.94q1.17,3.63,2.44,7.21A315.15,315.15,0,0,0,211.1,367c19.31,16.71,41.56,29,61.28,45,25,20.17,55.64,37.3,84.88,50.37,30.32,13.57,63.55,22.14,96.6,20.2C203.91,405.31,146.25,235.28,146.25,235.28Z"/><path class="cls-10" d="M483.35,412.35c-56.19-44.75-116.87-86-159.58-143.75-11-14.84-20.82-31.08-24.43-49.18-9.69-48.62,27.07-99.51,11.29-146.51-3.93-11.71-10.89-22-19.4-31,7.76,27.13,17.15,44.83,9.9,83.45-10.45,55.68-30.37,88.89,0,135.08,24,36.54,77.7,92.78,185.53,154.61C485.55,414.12,484.45,413.22,483.35,412.35Z"/></g></g></svg>